<svg width="26" height="26" viewBox="0 0 26 26" fill="none" xmlns="http://www.w3.org/2000/svg">
<rect width="26" height="26" rx="13" fill="black"/>
<path d="M7.57553 15.97C7.00353 13.682 6.71753 12.5387 7.3182 11.7693C7.91887 11 9.0982 11 11.4562 11H14.5429C16.9015 11 18.0802 11 18.6809 11.7693C19.2815 12.5387 18.9955 13.6827 18.4235 15.97C18.0595 17.4253 17.8782 18.1527 17.3355 18.5767C16.7929 19 16.0429 19 14.5429 19H11.4562C9.9562 19 9.2062 19 8.66353 18.5767C8.12087 18.1527 7.93887 17.4253 7.57553 15.97Z" stroke="#ADE406"/>
<path d="M18 11.3334L17.5267 9.59675C17.344 8.92675 17.2527 8.59208 17.0653 8.33941C16.8785 8.08839 16.6249 7.89502 16.3333 7.78141C16.04 7.66675 15.6933 7.66675 15 7.66675M8 11.3334L8.47333 9.59675C8.656 8.92675 8.74733 8.59208 8.93467 8.33941C9.12145 8.08839 9.37513 7.89502 9.66667 7.78141C9.96 7.66675 10.3067 7.66675 11 7.66675" stroke="#ADE406"/>
<path d="M11 7.66667C11 7.48986 11.0702 7.32029 11.1953 7.19526C11.3203 7.07024 11.4899 7 11.6667 7H14.3333C14.5101 7 14.6797 7.07024 14.8047 7.19526C14.9298 7.32029 15 7.48986 15 7.66667C15 7.84348 14.9298 8.01305 14.8047 8.13807C14.6797 8.2631 14.5101 8.33333 14.3333 8.33333H11.6667C11.4899 8.33333 11.3203 8.2631 11.1953 8.13807C11.0702 8.01305 11 7.84348 11 7.66667Z" stroke="#ADE406"/>
</svg>
