<svg width="28" height="26" viewBox="0 0 28 26" fill="none" xmlns="http://www.w3.org/2000/svg">
<path d="M3.15107 18.94C2.00707 14.364 1.43507 12.0773 2.6364 10.5387C3.83773 9 6.1964 9 10.9124 9H17.0857C21.8031 9 24.1604 9 25.3617 10.5387C26.5631 12.0773 25.9911 14.3653 24.8471 18.94C24.1191 21.8507 23.7564 23.3053 22.6711 24.1533C21.5857 25 20.0857 25 17.0857 25H10.9124C7.9124 25 6.4124 25 5.32707 24.1533C4.24173 23.3053 3.87773 21.8507 3.15107 18.94Z" stroke="white" stroke-width="2"/>
<path d="M24 9.66667L23.0533 6.19334C22.688 4.85334 22.5053 4.184 22.1307 3.67867C21.7571 3.17662 21.2497 2.78987 20.6667 2.56267C20.08 2.33334 19.3867 2.33334 18 2.33334M4 9.66667L4.94667 6.19334C5.312 4.85334 5.49467 4.184 5.86933 3.67867C6.2429 3.17662 6.75025 2.78987 7.33333 2.56267C7.92 2.33334 8.61333 2.33334 10 2.33334" stroke="white" stroke-width="2"/>
<path d="M10 2.33333C10 1.97971 10.1405 1.64057 10.3905 1.39052C10.6406 1.14048 10.9797 1 11.3333 1H16.6667C17.0203 1 17.3594 1.14048 17.6095 1.39052C17.8595 1.64057 18 1.97971 18 2.33333C18 2.68696 17.8595 3.02609 17.6095 3.27614C17.3594 3.52619 17.0203 3.66667 16.6667 3.66667H11.3333C10.9797 3.66667 10.6406 3.52619 10.3905 3.27614C10.1405 3.02609 10 2.68696 10 2.33333Z" stroke="white" stroke-width="2"/>
</svg>
