<svg width="265" height="266" viewBox="0 0 265 266" fill="none" xmlns="http://www.w3.org/2000/svg">
<g opacity="0.46" filter="url(#filter0_f_145_839)">
<circle cx="132.5" cy="133" r="60" fill="#B4DD38"/>
</g>
<path d="M108.875 105H158.167C161.184 105 164.077 106.198 166.21 108.332C168.343 110.465 169.542 113.358 169.542 116.375V150.5C169.542 153.517 168.343 156.41 166.21 158.543C164.077 160.677 161.184 161.875 158.167 161.875H108.875C105.858 161.875 102.965 160.677 100.832 158.543C98.6984 156.41 97.5 153.517 97.5 150.5V116.375C97.5 113.358 98.6984 110.465 100.832 108.332C102.965 106.198 105.858 105 108.875 105ZM108.875 108.792C106.979 108.792 105.311 109.436 104.022 110.574L133.521 129.646L163.02 110.574C161.731 109.436 160.063 108.792 158.167 108.792H108.875ZM133.521 134.234L101.785 113.645C101.481 114.479 101.292 115.427 101.292 116.375V150.5C101.292 152.511 102.091 154.44 103.513 155.862C104.935 157.284 106.864 158.083 108.875 158.083H158.167C160.178 158.083 162.107 157.284 163.529 155.862C164.951 154.44 165.75 152.511 165.75 150.5V116.375C165.75 115.427 165.56 114.479 165.257 113.645L133.521 134.234Z" fill="#ADE406"/>
<defs>
<filter id="filter0_f_145_839" x="0.400002" y="0.900002" width="264.2" height="264.2" filterUnits="userSpaceOnUse" color-interpolation-filters="sRGB">
<feFlood flood-opacity="0" result="BackgroundImageFix"/>
<feBlend mode="normal" in="SourceGraphic" in2="BackgroundImageFix" result="shape"/>
<feGaussianBlur stdDeviation="36.05" result="effect1_foregroundBlur_145_839"/>
</filter>
</defs>
</svg>
