<svg width="193" height="21" viewBox="0 0 193 21" fill="none" xmlns="http://www.w3.org/2000/svg">
<path d="M0.0600002 21V0.519999H8.06V8.808H21.82V12.968H8.06V21H0.0600002ZM22.492 4.68H9.66V0.519999H22.492V4.68ZM26.0213 4.04V0.519999H33.3813V4.04H26.0213ZM26.0213 21V5.48H33.3813V21H26.0213ZM37.545 16.168V2.024H44.905V16.072C44.905 17 45.385 17.48 46.313 17.48H53.097V21H42.697C39.049 21 37.545 19.4 37.545 16.168ZM46.185 8.52V5H52.873V8.52H46.185ZM59.175 0.519999L82.727 14.28V21H80.487L56.935 7.24V0.519999H59.175ZM82.727 12.296L74.727 7.72V0.519999H82.727V12.296ZM56.935 9.16L64.935 13.8V21H56.935V9.16ZM100.129 11.368V14.248H96.2893C95.1373 14.248 94.5613 14.824 94.5613 15.976V16.392C94.5613 17.544 95.1373 18.12 96.2893 18.12H99.9053C100.833 18.12 101.409 17.416 101.409 16.296V9.928C101.409 8.84 101.153 8.2 99.6813 8.2H98.6253V5H102.337C106.465 5 108.769 6.856 108.769 10.152V21H107.329L103.521 17.864H103.201C102.881 20.424 101.025 21 98.7213 21H91.5533C88.5453 21 87.2013 19.656 87.2013 16.648V15.72C87.2013 12.68 88.6093 11.368 91.8733 11.368H100.129ZM94.2413 5H97.3453V8.2H96.6413C94.7533 8.2 94.5613 8.616 94.5613 10.056L87.8413 9.992V9.352C87.8413 6.056 89.3773 5 94.2413 5ZM112.608 16.168V2.024H119.968V16.072C119.968 17 120.448 17.48 121.376 17.48H128.16V21H117.76C114.112 21 112.608 19.4 112.608 16.168ZM121.248 8.52V5H127.936V8.52H121.248ZM131.678 4.04V0.519999H139.038V4.04H131.678ZM131.678 21V5.48H139.038V21H131.678ZM154.401 17.48V21H151.841C146.049 21 143.201 19.4 143.201 14.408V11.56C143.201 6.6 145.729 5 151.521 5H154.401V8.52H153.601C151.361 8.52 150.561 9.064 150.561 10.856V15.112C150.561 16.936 151.361 17.48 153.601 17.48H154.401ZM158.721 21H155.841V17.48H156.641C158.881 17.48 159.681 16.936 159.681 15.112V10.856C159.681 9.064 158.881 8.52 156.641 8.52H155.841V5H158.721C164.737 5 167.041 6.76 167.041 11.56V14.408C167.041 19.4 164.513 21 158.721 21ZM171.209 21V5H178.569V21H171.209ZM192.777 9.832V21H185.417V9.608C185.417 8.68 184.937 8.2 184.009 8.2H180.009V5H187.625C191.273 5 192.777 6.6 192.777 9.832Z" fill="#ADE406"/>
</svg>
