<svg width="195" height="18" viewBox="0 0 195 18" fill="none" xmlns="http://www.w3.org/2000/svg">
<path d="M86.5 9H1.5" stroke="url(#paint0_linear_145_453)" stroke-width="2" stroke-linecap="round"/>
<path d="M95.267 13.1364C94.6761 13.1364 94.1577 12.9957 93.7116 12.7145C93.2685 12.4332 92.9219 12.0398 92.6719 11.5341C92.4247 11.0284 92.3011 10.4375 92.3011 9.76136C92.3011 9.07955 92.4247 8.48437 92.6719 7.97585C92.9219 7.46733 93.2685 7.07244 93.7116 6.79119C94.1577 6.50994 94.6761 6.36932 95.267 6.36932C95.858 6.36932 96.375 6.50994 96.8182 6.79119C97.2642 7.07244 97.6108 7.46733 97.858 7.97585C98.108 8.48437 98.233 9.07955 98.233 9.76136C98.233 10.4375 98.108 11.0284 97.858 11.5341C97.6108 12.0398 97.2642 12.4332 96.8182 12.7145C96.375 12.9957 95.858 13.1364 95.267 13.1364ZM95.267 12.233C95.7159 12.233 96.0852 12.1179 96.375 11.8878C96.6648 11.6577 96.8793 11.3551 97.0185 10.9801C97.1577 10.6051 97.2273 10.1989 97.2273 9.76136C97.2273 9.32386 97.1577 8.91619 97.0185 8.53835C96.8793 8.16051 96.6648 7.85511 96.375 7.62216C96.0852 7.3892 95.7159 7.27273 95.267 7.27273C94.8182 7.27273 94.4489 7.3892 94.1591 7.62216C93.8693 7.85511 93.6548 8.16051 93.5156 8.53835C93.3764 8.91619 93.3068 9.32386 93.3068 9.76136C93.3068 10.1989 93.3764 10.6051 93.5156 10.9801C93.6548 11.3551 93.8693 11.6577 94.1591 11.8878C94.4489 12.1179 94.8182 12.233 95.267 12.233ZM99.7681 13V6.45455H100.74V7.44318H100.808C100.927 7.11932 101.143 6.85653 101.456 6.65483C101.768 6.45312 102.12 6.35227 102.512 6.35227C102.586 6.35227 102.679 6.35369 102.789 6.35653C102.9 6.35937 102.984 6.36364 103.041 6.36932V7.39205C103.007 7.38352 102.929 7.37074 102.806 7.35369C102.687 7.33381 102.561 7.32386 102.427 7.32386C102.109 7.32386 101.825 7.39062 101.575 7.52415C101.328 7.65483 101.132 7.83665 100.987 8.0696C100.845 8.29972 100.774 8.5625 100.774 8.85795V13H99.7681Z" fill="white"/>
<path d="M108.5 9H193.5" stroke="url(#paint1_linear_145_453)" stroke-width="2" stroke-linecap="round"/>
<defs>
<linearGradient id="paint0_linear_145_453" x1="19.5" y1="11.5" x2="86" y2="11.4999" gradientUnits="userSpaceOnUse">
<stop stop-color="white" stop-opacity="0"/>
<stop offset="1" stop-color="white"/>
</linearGradient>
<linearGradient id="paint1_linear_145_453" x1="175.5" y1="11.5" x2="109" y2="11.4999" gradientUnits="userSpaceOnUse">
<stop stop-color="white" stop-opacity="0"/>
<stop offset="1" stop-color="white"/>
</linearGradient>
</defs>
</svg>
