<svg width="32" height="32" viewBox="0 0 32 32" fill="none" xmlns="http://www.w3.org/2000/svg">
<path d="M15.9993 2.66666C8.63535 2.66666 2.66602 8.636 2.66602 16C2.66602 23.364 8.63535 29.3333 15.9993 29.3333C23.3633 29.3333 29.3327 23.364 29.3327 16C29.3327 8.636 23.3633 2.66666 15.9993 2.66666Z" stroke="white" stroke-width="2" stroke-linecap="round" stroke-linejoin="round"/>
<path d="M5.69336 24.4613C5.69336 24.4613 8.66536 20.6667 15.9987 20.6667C23.332 20.6667 26.3054 24.4613 26.3054 24.4613M15.9987 16C17.0596 16 18.077 15.5786 18.8271 14.8284C19.5773 14.0783 19.9987 13.0609 19.9987 12C19.9987 10.9391 19.5773 9.92172 18.8271 9.17157C18.077 8.42143 17.0596 8 15.9987 8C14.9378 8 13.9204 8.42143 13.1703 9.17157C12.4201 9.92172 11.9987 10.9391 11.9987 12C11.9987 13.0609 12.4201 14.0783 13.1703 14.8284C13.9204 15.5786 14.9378 16 15.9987 16Z" stroke="white" stroke-width="2" stroke-linecap="round" stroke-linejoin="round"/>
</svg>
